<?xml version="1.0" encoding="UTF-8"?><svg id="Logo" xmlns="http://www.w3.org/2000/svg" xmlns:xlink="http://www.w3.org/1999/xlink" viewBox="0 0 170.0787402 170.0787402"><defs><style>.cls-1{fill:url(#Unbenannter_Verlauf_29-3);}.cls-2{fill:url(#Unbenannter_Verlauf_29-2);}.cls-3{fill:url(#Unbenannter_Verlauf_29-4);}.cls-4{fill:url(#Unbenannter_Verlauf_29);}</style><linearGradient id="Unbenannter_Verlauf_29" x1="59.5278772" y1="136.0629479" x2="59.5278772" y2="85.0395104" gradientUnits="userSpaceOnUse"><stop offset="0" stop-color="#10427c"/><stop offset="1" stop-color="#aedcef"/></linearGradient><linearGradient id="Unbenannter_Verlauf_29-2" x1="87.8740686" y1="107.7162682" x2="87.8740686" y2="56.6928307" xlink:href="#Unbenannter_Verlauf_29"/><linearGradient id="Unbenannter_Verlauf_29-3" x1="99.9512781" y1="128.9164635" x2="99.9512781" y2="11.3385827" xlink:href="#Unbenannter_Verlauf_29"/><linearGradient id="Unbenannter_Verlauf_29-4" x1="72.2837366" y1="161.5746667" x2="72.2837366" y2="34.0160729" xlink:href="#Unbenannter_Verlauf_29"/></defs><polygon class="cls-4" points="34.0161585 85.0395104 34.0161585 136.0629479 85.039596 136.0629479 85.039596 124.7250573 45.3540491 124.7250573 45.3540491 85.0395104 34.0161585 85.0395104"/><path class="cls-2" d="M87.8735803,107.7162682c14.0673828,0,25.5117188-11.4443359,25.5117188-25.5117188s-11.4443359-25.5117188-25.5117188-25.5117188c-14.0664062,0-25.5107422,11.4443359-25.5107422,25.5117188s11.4443359,25.5117188,25.5107422,25.5117188ZM87.8735803,68.0307213c7.8154297,0,14.1738281,6.3583984,14.1738281,14.1738281s-6.3583984,14.1738281-14.1738281,14.1738281c-7.8144531,0-14.1728516-6.3583984-14.1728516-14.1738281s6.3583984-14.1738281,14.1728516-14.1738281Z"/><path class="cls-1" d="M65.1971887,11.3385827c-9.6619873,0-18.3110352,4.4177246-24.03479,11.3388672h106.2398682v106.2390137c6.9206543-5.723877,11.3378906-14.3728027,11.3378906-24.0344238V11.3385827h-93.5429688Z"/><path class="cls-3" d="M8.5044397,65.196737v96.3779297h96.3769531c17.1933594,0,31.1816406-13.9873047,31.1816406-31.1806641V34.0160729H39.6851038c-17.1933594,0-31.1806641,13.9873047-31.1806641,31.1806641ZM124.7251428,130.3940026c0,10.9414062-8.9023438,19.8427734-19.84375,19.8427734H19.8423303v-85.0400391c0-10.9414062,8.9013672-19.8427734,19.8427734-19.8427734h85.0400391v85.0400391Z"/></svg>