<?xml version="1.0" encoding="UTF-8"?><svg id="Ebene_1" xmlns="http://www.w3.org/2000/svg" viewBox="0 0 136.0629921 136.0629921"><defs><style>.cls-1{fill:#10427c;}</style></defs><path class="cls-1" d="M34.0157557,5.669621C16.8223963,5.669621,2.8350917,19.6569257,2.8350917,36.8502851v96.3779297h96.3769531c17.1933594,0,31.1816406-13.9873047,31.1816406-31.1806641V5.669621H34.0157557ZM119.0557948,102.0475507c0,10.9414062-8.9023438,19.8427734-19.84375,19.8427734H14.1729823V36.8502851c0-10.9414062,8.9013672-19.8427734,19.8427734-19.8427734h85.0400391v85.0400391Z"/><polygon class="cls-1" points="28.3468104 56.6930585 28.3468104 107.716496 79.3702479 107.716496 79.3702479 96.3786054 39.684701 96.3786054 39.684701 56.6930585 28.3468104 56.6930585"/><path class="cls-1" d="M82.2042323,79.3698163c14.0673828,0,25.5117188-11.4443359,25.5117188-25.5117188s-11.4443359-25.5117188-25.5117188-25.5117188c-14.0664062,0-25.5107422,11.4443359-25.5107422,25.5117188s11.4443359,25.5117188,25.5107422,25.5117188ZM82.2042323,39.6842695c7.8154297,0,14.1738281,6.3583984,14.1738281,14.1738281s-6.3583984,14.1738281-14.1738281,14.1738281c-7.8144531,0-14.1728516-6.3583984-14.1728516-14.1738281s6.3583984-14.1738281,14.1728516-14.1738281Z"/></svg>