<?xml version="1.0" encoding="UTF-8"?><svg id="Ebene_1" xmlns="http://www.w3.org/2000/svg" viewBox="0 0 136.0629921 136.0629921"><defs><style>.cls-1{fill:#10427c;}</style></defs><path class="cls-1" d="M36.8509521,5.6691938c-17.1933594,0-31.1816406,13.987793-31.1816406,31.1811523v93.543457h93.5429688c17.1933594,0,31.1816406-13.987793,31.1816406-31.1811523V5.6691938H36.8509521ZM79.3704834,110.551518H25.512085v-53.8583984h11.3378906v42.5195312h42.5205078v11.3388672ZM86.4564209,76.5354047c-14.8486328,0-26.9287109-12.0805664-26.9287109-26.9291992s12.0800781-26.9291992,26.9287109-26.9291992,26.9287109,12.0805664,26.9287109,26.9291992-12.0800781,26.9291992-26.9287109,26.9291992Z"/><path class="cls-1" d="M86.4564209,34.0158735c-8.5966797,0-15.5908203,6.9936523-15.5908203,15.590332s6.9941406,15.590332,15.5908203,15.590332,15.5908203-6.9936523,15.5908203-15.590332-6.9941406-15.590332-15.5908203-15.590332Z"/></svg>