<?xml version="1.0" encoding="UTF-8"?><svg id="Ebene_1" xmlns="http://www.w3.org/2000/svg" viewBox="0 0 649.1338583 192.7559055"><defs><style>.cls-1{fill:#10427c;}</style></defs><polygon class="cls-1" points="518.7405679 79.3702191 518.7405679 130.3936566 569.7640054 130.3936566 569.7640054 119.0557659 530.0784585 119.0557659 530.0784585 79.3702191 518.7405679 79.3702191"/><path class="cls-1" d="M572.5979898,102.0469769c14.0673828,0,25.5117188-11.4443359,25.5117188-25.5117188s-11.4443359-25.5117188-25.5117188-25.5117188c-14.0664062,0-25.5107422,11.4443359-25.5107422,25.5117188s11.4443359,25.5117188,25.5107422,25.5117188ZM572.5979898,62.36143c7.8154297,0,14.1738281,6.3583984,14.1738281,14.1738281s-6.3583984,14.1738281-14.1738281,14.1738281c-7.8144531,0-14.1728516-6.3583984-14.1728516-14.1738281s6.3583984-14.1738281,14.1728516-14.1738281Z"/><path class="cls-1" d="M549.9215982,5.6692913c-9.6619873,0-18.3110352,4.4177246-24.03479,11.3388672h106.2398682v106.2390137c6.9206543-5.723877,11.3378906-14.3728027,11.3378906-24.0344238V5.6692913h-93.5429688Z"/><path class="cls-1" d="M493.2288492,59.5274456v96.3779297h96.3769531c17.1933594,0,31.1816406-13.9873047,31.1816406-31.1806641V28.3467816h-96.3779297c-17.1933594,0-31.1806641,13.9873047-31.1806641,31.1806641ZM609.4495523,124.7247113c0,10.9414062-8.9023438,19.8427734-19.84375,19.8427734h-85.0390625V59.5274456c0-10.9414062,8.9013672-19.8427734,19.8427734-19.8427734h85.0400391v85.0400391Z"/><path class="cls-1" d="M29.4053657,129.1798504c0,5.9926758-.7392578,10.7963867-2.2167969,14.4106445-1.4775391,3.6118164-3.6337891,6.546875-6.4658203,8.8061523-2.8330078,2.2573242-6.7958984,4.5361328-11.8857422,6.8349609l-3.3251953-8.2514648c3.2021484-1.4780273,5.6650391-2.9365234,7.3896484-4.3720703,1.7246094-1.4379883,3.0175781-3.4487305,3.8798828-6.0351563s1.2929688-6.1391602,1.2929688-10.6538086v-61.7060547h11.3310547v60.9667969ZM29.5284126,39.2692059c1.4785156,1.4780273,2.2177734,3.3256836,2.2177734,5.5424805s-.7392578,4.0454102-2.2177734,5.480957c-1.4775391,1.4375-3.4082031,2.1552734-5.7880859,2.1552734-2.2998047,0-4.1884766-.7177734-5.6660156-2.1552734-1.4775391-1.4355469-2.2167969-3.2641602-2.2167969-5.480957s.7392578-4.0644531,2.2167969-5.5424805,3.3662109-2.2167969,5.6660156-2.2167969c2.3798828,0,4.3105469.7387695,5.7880859,2.2167969Z"/><path class="cls-1" d="M82.3663032,68.5826825c3.5302734,1.2314453,6.8974609,3.0791016,10.0996094,5.5424805l-4.8027344,7.1435547c-2.9560547-1.8881836-5.7695312-3.2832031-8.4375-4.1875-2.6689453-.902832-5.4804688-1.3549805-8.4365234-1.3549805-3.6953125,0-6.6103516.7602539-8.7451172,2.2783203-2.1357422,1.5205078-3.2021484,3.5932617-3.2021484,6.2202148,0,2.628418,1.0048828,4.6801758,3.0175781,6.1582031,2.0117188,1.4780273,5.6445312,2.9155273,10.9003906,4.3105469,7.2246094,1.8071289,12.6240234,4.2705078,16.1962891,7.3901367,3.5712891,3.121582,5.3574219,7.3896484,5.3574219,12.809082,0,6.4047852-2.484375,11.2910156-7.4511719,14.6567383-4.96875,3.3676758-11.0234375,5.0498047-18.1669922,5.0498047-9.8535156,0-18.0244141-2.8330078-24.5097656-8.4985352l6.0351562-6.8969727c5.5,4.1875,11.5771484,6.28125,18.2285156,6.28125,4.2685547,0,7.6552734-.8813477,10.1611328-2.6479492,2.5039062-1.7646484,3.7558594-4.1665039,3.7558594-7.2050781,0-2.2172852-.4521484-4.0029297-1.3544922-5.3579102-.9042969-1.3549805-2.4628906-2.5439453-4.6806641-3.5717773-2.2167969-1.0258789-5.4609375-2.1132812-9.7294922-3.2636719-6.8974609-1.8051758-11.8857422-4.2280273-14.9648438-7.2670898-3.0791016-3.0366211-4.6181641-6.8969727-4.6181641-11.5776367,0-3.3657227,1.0039062-6.4238281,3.0175781-9.1757812,2.0107422-2.75,4.8027344-4.8842773,8.375-6.4042969,3.5712891-1.5185547,7.5742188-2.2788086,12.0087891-2.2788086,4.4335938,0,8.4150391.6157227,11.9462891,1.8476562Z"/><path class="cls-1" d="M133.9727485,98.3888348l22.5390625,34.7324219h-13.6708984l-15.8886719-27.4658203-16.1347656,27.4658203h-12.8085938l22.6621094-34.2397461-20.0761719-30.668457h13.3027344l13.5478516,23.7709961,13.6708984-23.7709961h12.8095703l-19.953125,30.1757812Z"/><path class="cls-1" d="M220.3116157,71.1691082c-2.4638672.8217773-5.1728516,1.3549805-8.1289062,1.6010742-2.9560547.246582-6.5703125.3696289-10.8388672.3696289,7.6367188,3.4487305,11.4541016,8.9101562,11.4541016,16.3808594,0,6.4873047-2.2167969,11.7836914-6.6503906,15.8881836-4.4335938,4.1069336-10.46875,6.1586914-18.1054688,6.1586914-2.9560547,0-5.7080078-.4101562-8.2519531-1.2319336-.9853516.6582031-1.7666016,1.5395508-2.3398437,2.6479492-.5761719,1.1088867-.8623047,2.2382812-.8623047,3.387207,0,3.53125,2.8330078,5.2958984,8.4980469,5.2958984h10.3457031c4.3515625,0,8.2099609.7817383,11.578125,2.340332,3.3652344,1.5605469,5.9736328,3.6948242,7.8203125,6.4047852,1.8476562,2.7094727,2.7714844,5.7885742,2.7714844,9.2373047,0,6.3217773-2.5859375,11.1870117-7.7587891,14.5952148-5.1738281,3.40625-12.7285156,5.1113281-22.6630859,5.1113281-6.9794922,0-12.5009766-.7197266-16.5654297-2.1557617-4.0644531-1.4375-6.9589844-3.5927734-8.6835938-6.4658203-1.7236328-2.8754883-2.5859375-6.5703125-2.5859375-11.0849609h10.2226563c0,2.6269531.4921875,4.6992188,1.4775391,6.2197266.9853516,1.5185547,2.75,2.6674805,5.296875,3.4487305,2.5439453.7792969,6.1582031,1.1699219,10.8378906,1.1699219,6.8144531,0,11.6796875-.8427734,14.5957031-2.5249023,2.9130859-1.6835938,4.3720703-4.2084961,4.3720703-7.574707,0-3.0385742-1.1513672-5.3383789-3.4492188-6.8969727-2.2988281-1.559082-5.5019531-2.340332-9.6064453-2.340332h-10.2226562c-5.5019531,0-9.6689453-1.1699219-12.5009766-3.5102539-2.8330078-2.3398438-4.25-5.2749023-4.25-8.8061523,0-2.1342773.6162109-4.1875,1.8476562-6.1582031s2.9970703-3.7353516,5.2958984-5.2963867c-3.7773438-1.9707031-6.5488281-4.4125977-8.3134766-7.328125-1.7666016-2.9135742-2.6474609-6.4663086-2.6474609-10.6538086,0-4.3510742,1.0869141-8.2519531,3.2636719-11.7006836,2.1748047-3.4487305,5.1728516-6.137207,8.9912109-8.0673828,3.8183594-1.9282227,8.0673828-2.8945312,12.7470703-2.8945312,5.0908203.0830078,9.3613281-.1020508,12.8095703-.5541992,3.4482422-.4501953,6.3007812-1.065918,8.5595703-1.8476562,2.2578125-.7792969,5.0292969-1.9086914,8.3144531-3.3867188l3.3251953,10.2226562ZM177.3887641,78.8668621c-2.3408203,2.6694336-3.5107422,6.1796875-3.5107422,10.5307617,0,4.434082,1.1894531,7.9863281,3.5722656,10.6538086,2.3798828,2.6689453,5.7460937,4.0029297,10.0996094,4.0029297,4.4335938,0,7.8203125-1.293457,10.1611328-3.8798828,2.3398438-2.5864258,3.5097656-6.2197266,3.5097656-10.8999023,0-9.6069336-4.6396484-14.4106445-13.9179688-14.4106445-4.2705078,0-7.5742188,1.3354492-9.9140625,4.0029297Z"/><path class="cls-1" d="M266.6202095,67.474284l-2.09375,11.0849609c-1.9707031-.4926758-3.8603516-.7392578-5.6660156-.7392578-4.0234375,0-7.2666016,1.4780273-9.7294922,4.434082-2.4638672,2.9560547-4.3935547,7.5551758-5.7890625,13.7944336v37.0727539h-11.3310547v-64.9082031h9.7294922l1.1083984,13.1787109c1.7246094-4.84375,4.0644531-8.4985352,7.0205078-10.9619141,2.9560547-2.4628906,6.4052734-3.6948242,10.3466797-3.6948242,2.2978516,0,4.4335938.246582,6.4042969.7392578Z"/><path class="cls-1" d="M320.3204048,123.8224285c.9023438,1.2739258,2.2568359,2.237793,4.0644531,2.894043l-2.5869141,7.8828125c-3.3671875-.4121094-6.0771484-1.3549805-8.1289062-2.8330078-2.0537109-1.4780273-3.5712891-3.7753906-4.5566406-6.8969727-4.3535156,6.4873047-10.7988281,9.7299805-19.3369141,9.7299805-6.4052734,0-11.4550781-1.8051758-15.1494141-5.4194336-3.6953125-3.6123047-5.5429688-8.3330078-5.5429688-14.1640625,0-6.8969727,2.4824219-12.1933594,7.4521484-15.8881836,4.9667969-3.6948242,12.0078125-5.5424805,21.1220703-5.5424805h9.9765625v-4.8032227c0-4.5976562-1.1083984-7.8828125-3.3251953-9.8535156s-5.625-2.9560547-10.2226562-2.9560547c-4.7636719,0-10.5927734,1.1508789-17.4892578,3.4487305l-2.8330078-8.2519531c8.0458984-2.9560547,15.5185547-4.434082,22.4160156-4.434082,7.6357422,0,13.3417969,1.8686523,17.1201172,5.6040039,3.7753906,3.7373047,5.6650391,9.0527344,5.6650391,15.9501953v29.6826172c0,2.6289062.4501953,4.578125,1.3554688,5.8505859ZM307.6338813,116.0011395v-14.902832h-8.4980469c-11.9892578,0-17.9824219,4.434082-17.9824219,13.3017578,0,3.8603516.9433594,6.7739258,2.8330078,8.7446289,1.8876953,1.9707031,4.6806641,2.9560547,8.375,2.9560547,6.4853516,0,11.578125-3.3657227,15.2724609-10.0996094Z"/><path class="cls-1" d="M390.277436,75.6031903c3.8583984,5.9116211,5.7880859,14.246582,5.7880859,25.0024414,0,10.1821289-2.2167969,18.394043-6.6503906,24.6328125-4.4345703,6.2412109-10.7158203,9.3608398-18.8447266,9.3608398-7.2265625,0-12.8916016-2.4633789-16.9970703-7.3901367v30.7910156l-11.3310547,1.3554688v-91.1425781h9.7304688l.8623047,8.7446289c2.3798828-3.2827148,5.2539062-5.8076172,8.6210938-7.574707,3.3662109-1.7646484,6.8974609-2.6479492,10.5927734-2.6479492,8.2919922,0,14.3671875,2.9560547,18.2285156,8.8681641ZM383.8721626,100.6056317c0-16.5849609-4.8857422-24.8793945-14.65625-24.8793945-3.2021484,0-6.1181641.9448242-8.7451172,2.8330078-2.6289062,1.8896484-4.9267578,4.3105469-6.8974609,7.2666016v31.6533203c1.6416016,2.5463867,3.6953125,4.4956055,6.1591797,5.8505859,2.4628906,1.3544922,5.1728516,2.0322266,8.1289062,2.0322266,10.6728516,0,16.0107422-8.2524414,16.0107422-24.7563477Z"/><path class="cls-1" d="M459.8028266,72.0314129c3.3251953,3.53125,4.9882812,8.375,4.9882812,14.5332031v46.5566406h-11.3310547v-44.9555664c0-4.597168-.8837891-7.8398438-2.6484375-9.7299805-1.7666016-1.8876953-4.3320312-2.8325195-7.6972656-2.8325195-3.3681641,0-6.3642578.9853516-8.9912109,2.9560547-2.6289062,1.9702148-5.0927734,4.7626953-7.390625,8.375v46.1870117h-11.3310547V42.2252606l11.3310547-1.2319336v36.2109375c5.0908203-6.9780273,11.4951172-10.4692383,19.2138672-10.4692383,5.9121094,0,10.53125,1.7666016,13.8564453,5.2963867Z"/></svg>