<?xml version="1.0" encoding="UTF-8"?><svg xmlns="http://www.w3.org/2000/svg" xmlns:xlink="http://www.w3.org/1999/xlink" viewBox="0 0 170.0787402 170.0787402"><defs><style>.cls-1{fill:#fff;}.cls-2{fill:url(#Unbenannter_Verlauf_29-2);}.cls-3{fill:url(#Unbenannter_Verlauf_29);}</style><linearGradient id="Unbenannter_Verlauf_29" x1="99.9513574" y1="128.9164148" x2="99.9513574" y2="11.3385339" gradientUnits="userSpaceOnUse"><stop offset="0" stop-color="#10427c"/><stop offset="1" stop-color="#aedcef"/></linearGradient><linearGradient id="Unbenannter_Verlauf_29-2" x1="73.7008081" y1="158.7402063" x2="73.7008081" y2="34.0155969" xlink:href="#Unbenannter_Verlauf_29"/></defs><g id="Background_white"><rect class="cls-1" x="0" y="0" width="170.0787402" height="170.0787402"/></g><g id="Logo"><path class="cls-3" d="M65.197268,11.3385339c-9.6619873,0-18.3110352,4.4177246-24.03479,11.3388672h106.2398682v106.2390137c6.9206543-5.723877,11.3378906-14.3728027,11.3378906-24.0344238V11.3385339h-93.5429688Z"/><path class="cls-2" d="M11.3385034,65.1967492v93.543457h93.5429688c17.1933594,0,31.1816406-13.987793,31.1816406-31.1811523V34.0155969H42.520144c-17.1933594,0-31.1816406,13.987793-31.1816406,31.1811523Z"/><polygon class="cls-1" points="42.5192467 85.0395714 31.1813561 85.0395714 31.1813561 138.8979699 85.0397546 138.8979699 85.0397546 127.5591027 42.5192467 127.5591027 42.5192467 85.0395714"/><path class="cls-1" d="M92.1256921,51.0234582c-14.8486328,0-26.9287109,12.0805664-26.9287109,26.9291992s12.0800781,26.9291992,26.9287109,26.9291992,26.9287109-12.0805664,26.9287109-26.9291992-12.0800781-26.9291992-26.9287109-26.9291992ZM92.1256921,93.5429894c-8.5966797,0-15.5908203-6.9936523-15.5908203-15.590332s6.9941406-15.590332,15.5908203-15.590332,15.5908203,6.9936523,15.5908203,15.590332-6.9941406,15.590332-15.5908203,15.590332Z"/></g></svg>