<?xml version="1.0" encoding="UTF-8"?><svg xmlns="http://www.w3.org/2000/svg" xmlns:xlink="http://www.w3.org/1999/xlink" viewBox="0 0 170.0787402 170.0787402"><defs><style>.cls-1{fill:#fff;}.cls-2{fill:url(#Unbenannter_Verlauf_29-2);}.cls-3{fill:url(#Unbenannter_Verlauf_29);}</style><linearGradient id="Unbenannter_Verlauf_29" x1="99.9512896" y1="128.9164193" x2="99.9512896" y2="11.3385385" gradientUnits="userSpaceOnUse"><stop offset="0" stop-color="#10427c"/><stop offset="1" stop-color="#addbee"/></linearGradient><linearGradient id="Unbenannter_Verlauf_29-2" x1="72.2837481" y1="161.5746224" x2="72.2837481" y2="34.0160287" xlink:href="#Unbenannter_Verlauf_29"/></defs><g id="Background_white"><rect class="cls-1" y="0" width="170.0787402" height="170.0787402"/></g><g id="Logo"><path class="cls-3" d="M65.1972003,11.3385385c-9.6619873,0-18.3110352,4.4177246-24.03479,11.3388672h106.2398682v106.2390137c6.9206543-5.723877,11.3378906-14.3728027,11.3378906-24.0344238V11.3385385h-93.5429688Z"/><path class="cls-2" d="M8.5044512,65.1966928v96.3779297h96.3769531c17.1933594,0,31.1816406-13.9873047,31.1816406-31.1806641V34.0160287H39.6851153c-17.1933594,0-31.1806641,13.9873047-31.1806641,31.1806641ZM124.7251544,130.3939584c0,10.9414062-8.9023438,19.8427734-19.84375,19.8427734H19.8423419v-85.0400391c0-10.9414062,8.9013672-19.8427734,19.8427734-19.8427734h85.0400391v85.0400391Z"/></g></svg>