<?xml version="1.0" encoding="UTF-8"?><svg xmlns="http://www.w3.org/2000/svg" viewBox="0 0 232.4409449 232.4409449"><defs><style>.cls-1{fill:#fff;}.cls-2{fill:#10427c;}</style></defs><g id="Background_white"><rect class="cls-1" y="0" width="232.4409449" height="232.4409449"/></g><g id="Logo"><polygon class="cls-2" points="66.6143323 114.8033582 66.6143323 165.8267957 117.6377698 165.8267957 117.6377698 154.4889051 77.9522229 154.4889051 77.9522229 114.8033582 66.6143323 114.8033582"/><path class="cls-2" d="M120.4717542,137.480116c14.0673828,0,25.5117188-11.4443359,25.5117188-25.5117188s-11.4443359-25.5117188-25.5117188-25.5117188c-14.0664063,0-25.5107422,11.4443359-25.5107422,25.5117188s11.4443359,25.5117188,25.5107422,25.5117188ZM120.4717542,97.7945691c7.8154297,0,14.1738281,6.3583984,14.1738281,14.1738281s-6.3583984,14.1738281-14.1738281,14.1738281c-7.8144531,0-14.1728516-6.3583984-14.1728516-14.1738281s6.3583984-14.1738281,14.1728516-14.1738281Z"/><path class="cls-2" d="M97.7953626,41.1024304c-9.6619873,0-18.3110352,4.4177246-24.03479,11.3388672h106.2398682v106.2390137c6.9206543-5.723877,11.3378906-14.3728027,11.3378906-24.0344238V41.1024304h-93.5429688Z"/><path class="cls-2" d="M41.1026136,94.9605847v96.3779297h96.3769531c17.1933594,0,31.1816406-13.9873047,31.1816406-31.1806641V63.7799207h-96.3779297c-17.1933594,0-31.1806641,13.9873047-31.1806641,31.1806641ZM157.3233167,160.1578504c0,10.9414062-8.9023438,19.8427734-19.84375,19.8427734H52.4405042v-85.0400391c0-10.9414062,8.9013672-19.8427734,19.8427734-19.8427734h85.0400391v85.0400391Z"/></g></svg>