<?xml version="1.0" encoding="UTF-8"?><svg xmlns="http://www.w3.org/2000/svg" xmlns:xlink="http://www.w3.org/1999/xlink" viewBox="0 0 232.4409449 232.4409449"><defs><style>.cls-1{fill:#fff;}.cls-2{fill:url(#Unbenannter_Verlauf_29-2);}.cls-3{fill:url(#Unbenannter_Verlauf_29);}</style><linearGradient id="Unbenannter_Verlauf_29" x1="131.1324597" y1="160.0975171" x2="131.1324597" y2="42.5196363" gradientUnits="userSpaceOnUse"><stop offset="0" stop-color="#10427c"/><stop offset="1" stop-color="#addbee"/></linearGradient><linearGradient id="Unbenannter_Verlauf_29-2" x1="104.8819104" y1="189.9213086" x2="104.8819104" y2="65.1966992" xlink:href="#Unbenannter_Verlauf_29"/></defs><g id="Background_white"><circle class="cls-1" cx="116.2204724" cy="116.2204724" r="113.3858268"/></g><g id="Logo"><path class="cls-3" d="M96.3783704,42.5196363c-9.6619873,0-18.3110352,4.4177246-24.03479,11.3388672h106.2398682v106.2390137c6.9206543-5.723877,11.3378906-14.3728027,11.3378906-24.0344238V42.5196363h-93.5429688Z"/><path class="cls-2" d="M42.5196057,96.3778516v93.543457h93.5429688c17.1933594,0,31.1816406-13.987793,31.1816406-31.1811523v-93.543457h-93.5429688c-17.1933594,0-31.1816406,13.987793-31.1816406,31.1811523Z"/><polygon class="cls-1" points="73.7003491 116.2206738 62.3624585 116.2206738 62.3624585 170.0790722 116.2208569 170.0790722 116.2208569 158.7402051 73.7003491 158.7402051 73.7003491 116.2206738"/><path class="cls-1" d="M123.3067944,82.2045605c-14.8486328,0-26.9287109,12.0805664-26.9287109,26.9291992s12.0800781,26.9291992,26.9287109,26.9291992,26.9287109-12.0805664,26.9287109-26.9291992-12.0800781-26.9291992-26.9287109-26.9291992ZM123.3067944,124.7240918c-8.5966797,0-15.5908203-6.9936523-15.5908203-15.590332s6.9941406-15.590332,15.5908203-15.590332,15.5908203,6.9936523,15.5908203,15.590332-6.9941406,15.590332-15.5908203,15.590332Z"/></g></svg>