<?xml version="1.0" encoding="UTF-8"?><svg xmlns="http://www.w3.org/2000/svg" viewBox="0 0 232.4409449 232.4409449"><defs><style>.cls-1{fill:#addbee;}.cls-2{fill:#fff;}</style></defs><g id="Background_white"><rect class="cls-2" width="232.4409449" height="232.4409449"/></g><g id="Logo"><path class="cls-1" d="M96.3783704,42.5196363c-9.6619873,0-18.3110352,4.4177246-24.03479,11.3388672h106.2398682v106.2390137c6.9206543-5.723877,11.3378906-14.3728027,11.3378906-24.0344238V42.5196363h-93.5429687Z"/><path class="cls-1" d="M42.5196057,96.3778516v93.543457h93.5429688c17.1933594,0,31.1816406-13.987793,31.1816406-31.1811523v-93.543457h-93.5429688c-17.1933594,0-31.1816406,13.987793-31.1816406,31.1811523ZM116.2207776,170.0790235h-53.8583984v-53.8583984h11.3378906v42.5195312h42.5205078v11.3388672ZM123.3067151,82.2045117c14.8486328,0,26.9287109,12.0805664,26.9287109,26.9291992s-12.0800781,26.9291992-26.9287109,26.9291992-26.9287109-12.0805664-26.9287109-26.9291992,12.0800781-26.9291992,26.9287109-26.9291992Z"/><path class="cls-1" d="M123.3067151,124.724043c8.5966797,0,15.5908203-6.9936523,15.5908203-15.590332s-6.9941406-15.590332-15.5908203-15.590332-15.5908203,6.9936523-15.5908203,15.590332,6.9941406,15.590332,15.5908203,15.590332Z"/></g></svg>