<?xml version="1.0" encoding="UTF-8"?><svg xmlns="http://www.w3.org/2000/svg" viewBox="0 0 170.0787402 170.0787402"><defs><style>.cls-1{fill:#fff;}</style></defs><g id="Background_white"><rect class="cls-1" x="0" y="-.00001" width="170.0787402" height="170.0787402"/></g><g id="Logo"><path d="M65.1973473,11.3385827c-9.6619873,0-18.3110352,4.4177246-24.03479,11.3388672h106.2398682v106.2390137c6.9206543-5.723877,11.3378906-14.3728027,11.3378906-24.0344238V11.3385827h-93.5429688Z"/><path d="M11.3385827,65.196798v93.543457h93.5429688c17.1933594,0,31.1816406-13.987793,31.1816406-31.1811523V34.0156457H42.5202233c-17.1933594,0-31.1816406,13.987793-31.1816406,31.1811523ZM85.0397546,138.8979699H31.1813561v-53.8583984h11.3378906v42.5195312h42.5205078v11.3388672ZM92.1256921,51.0234582c14.8486328,0,26.9287109,12.0805664,26.9287109,26.9291992s-12.0800781,26.9291992-26.9287109,26.9291992-26.9287109-12.0805664-26.9287109-26.9291992,12.0800781-26.9291992,26.9287109-26.9291992Z"/><path d="M92.1256921,93.5429894c8.5966797,0,15.5908203-6.9936523,15.5908203-15.590332s-6.9941406-15.590332-15.5908203-15.590332-15.5908203,6.9936523-15.5908203,15.590332,6.9941406,15.590332,15.5908203,15.590332Z"/></g></svg>