<?xml version="1.0" encoding="UTF-8"?><svg id="Ebene_1" xmlns="http://www.w3.org/2000/svg" viewBox="0 0 202.5461647 211.1582026"><defs><style>.cls-1{fill:#212120;}</style></defs><path class="cls-1" d="M183.8137651,144.7930026c-4.2109999-4.4102-5.5019999-5.7598-9.7304998-10.1738-2.2773944-2.3907-6.0097998-2.3907-8.2968998,0-2.2870999,2.3906-2.3339999,6.2304-.0898,8.5781l-5.4687999-5.709c-2.2772999-2.3906-6.0116998-2.3906-8.2968948.0098-2.2695049,2.3632-2.2851049,6.2636,0,8.6523l-2.621-2.7383c-2.2774049-2.3789-6.0079048-2.3789-8.293,0-2.2871047,2.3985-2.2871047,6.3047,0,8.6934l-18.877-19.7305c-2.2812042-2.3906-6.0078041-2.3906-8.294904,0-2.285096,2.3809-2.285096,6.2832,0,8.666l40.496099,42.3399-11.7753997-7.1035c-2.7909999-1.6895-6.4061998-.6797-8.0233998,2.2382-1.6113954,2.9375-.6328,6.6914,2.1522999,8.3829l15.2519996,9.1992c13.318305,8.0449,21.359305,7.5488,28.4706993,14.5664.164.1523.3437.3242.5058.4941l21.6230995-22.5879c-8.2304998-10.5664-7.5937998-32.1289-18.7323995-43.7773Z"/><path class="cls-1" d="M173.0226654,107.6738026c-35.7176991-28.1728-71.6649982-60.2529-91.1307945-102.248-1.4561032-3.1397-11.8008029-9.0195-12.4268029-2.4277-2.6942999,28.3388-10.9305997,56.415-20.9022971,82.9716-11.5947,30.876-26.6934,61.2627-47.6797,86.8858-4.1084,5.0156,7.2314,10.3965,11.1943,8.3633,27.9414-14.334,57.6786971-26.7969,88.2382963-34.2969,3.3280999-.8184,2.7538999-4.5918,1.1485-6.6875-2.0302963-2.6524-5.7578999-4.5234-9.1132963-3.6992-21.8926029,5.373-43.3262,13.3047-64.0293,22.6035,13.5468-20.9258,24.0937-43.875,32.8183-67.1084,8.1347971-21.6641,15.1767969-44.2998,19.0312968-67.2881,21.3387995,34.9971,53.1161987,63.3555,84.9823979,88.4902,2.3203053,1.8301,6.2401998,3.8809,9.1034998,1.8555,2.6913999-1.9043.7774-5.8281-1.2344-7.4141Z"/></svg>