<?xml version="1.0" encoding="UTF-8"?><svg id="Ebene_1" xmlns="http://www.w3.org/2000/svg" viewBox="0 0 680.3148669 129.3172767"><defs><style>.cls-1{fill-rule:evenodd;}.cls-1,.cls-2{fill:#1d1d1b;}</style></defs><path class="cls-2" d="M111.5402813,88.6908767c-2.5486999-2.7142-3.3364999-3.5346-5.9011999-6.2489-1.3805-1.4571-3.647097-1.4571-5.0351999,0-1.3884,1.4664-1.4148971,3.8247-.0514,5.2537l-3.3227999-3.4723c-1.3773-1.4849-3.6438999-1.4849-5.0354999.0032-1.3741,1.4351-1.3837,3.8247,0,5.285l-1.5878-1.6753c-1.3792-1.4571-3.6454999-1.4571-5.0338974,0-1.39,1.4692-1.39,3.8528,0,5.3192l-11.4546-12.083c-1.3853-1.4696-3.6455-1.4696-5.0323,0-1.3897,1.4692-1.3897,3.8592,0,5.3099l24.5732973,25.9225-7.1490998-4.3365c-1.6892975-1.0294-3.8856975-.4211-4.8667975,1.3695-.9734,1.7878-.3821,4.0934,1.3025,5.1416l9.2581973,5.6157c8.0803998,4.9262,12.9644997,4.6329,17.2793027,8.9288.1011969.1061.2120969.2029.3072969.2933l13.1202997-13.8206c-4.9964999-6.4613-4.6063999-19.6708-11.3702997-26.8058Z"/><path class="cls-2" d="M104.9994814,65.9489767C83.3230844,48.6915767,61.5076844,29.0459767,49.6942844,3.3215967c-.8827-1.92034-7.1615-5.52205-7.542-1.48682-1.6363,17.362-6.6345,34.5523-12.6852,50.816-7.0354,18.9091-16.1982,37.5346-28.9287,53.2212-2.5005,3.0698,4.3863,6.3613,6.7935,5.1259,16.9498-8.7826,34.9935-16.423,53.5407-21.0122,2.0204-.5022,1.6725-2.8139.6974-4.0931-1.2277-1.6254-3.4911-2.7736-5.53-2.2775-13.2871,3.3069-26.2861,8.1615-38.8527,13.852,8.2193-12.807,14.6196-26.8742,19.9122-41.0977,4.9387-13.2715,9.2085-27.1378,11.5467-41.2175,12.9535,21.4365,32.2339,38.8013,51.5752971,54.1992,1.4073,1.1169,3.7891999,2.3836,5.5223999,1.1357,1.6347-1.1574.4693-3.5675-.7444-4.5378Z"/><path class="cls-1" d="M130.6133808,55.6003767v-4.1416c0-3.8576.9562-6.7996,2.8266999-8.8148,1.9155-2.0092,5.3440999-3.0187,10.3702997-3.0187,4.9820999,0,12.4027997.4837,22.2488994,1.4571v5.1071h-23.2021994c-2.7202999,0-4.3565999.4804-4.9511999,1.5318-.4757.7629-.7175,2.0076-.7175,3.7375v4.1416c0,2.3775.56,3.8656,1.6753,4.3867.9533039.4897,2.2729999.7348,3.9933999.7348h14.0221996c3.7547043,0,6.5827043,1.0357,8.5780998,3.1742,1.9870999,2.1341,2.9917999,4.909,2.9917999,8.3628v4.3927c0,4.4209-1.0763,7.4469-3.1962999,9.0663-2.1496999,1.6098-4.9370999,2.4053-8.3735998,2.4053-5.4922957,0-13.5867997-.5585-24.3174994-1.6817v-4.9291h24.3174994c0-.0719.1668-.0719.4837043,0,.3570957.0466.7608956,0,1.2758956-.1904.4805-.1655.9936-.3994,1.4367-.6396,1.1964044-.5741,1.797-1.9344,1.797-4.0308v-4.3927c0-1.6472-.3651-2.8858-1.12-3.7001-.7175956-.8051-2.0295956-1.206-3.8732999-1.206h-14.0221996c-4.3144999,0-7.4219998-.8377-9.3732998-2.5347-1.9142-1.6488-2.8703999-4.747-2.8703999-9.2177h0ZM634.9059844,40.0651767h7.2254834l11.4309997,37.2292c.4399,1.2134.8456,1.9715,1.1916,2.3242.4025.3776.7645.6581,1.0421.8577.2776.2061.6022.3591.8766.4058.3214.0405.599.1124.8425.1124.2715.0467.5146.0467.7488.0467.5585-.1186.9204-.2058,1.1607-.2496l13.5179997-40.7264h7.3720998l-20.7686995,62.6744-6.7012998,9.1723h-4.0555999l8.3233998-24.2379c-5.0539999,0-8.6073998-3.2353-10.6478997-9.8525l-11.5587833-37.7563h0ZM600.5440689,87.6739767v-47.6088h4.6297999l1.9468,6.0415c4.5048999-2.7765,7.3254998-4.3473,8.5263998-4.7093,1.2012-.4038,2.2369159-.7252,3.1917999-1.0498,1.803116-.5194,4.0648999-.8018,6.8477998-.8018,2.7893162,0,4.6329999.2511,5.5907999.7271v6.5625c-1.3977-.3683-3.4253999-.5725-6.0274837-.5725-2.627,0-4.945116.2403-6.966716.7377-2.0339999.4853-3.6779999,1.0015-4.907284,1.5242-1.2012158.5211-3.2634158,1.5319-6.2553157,2.934v36.2152h-6.5765998ZM563.4212698,46.6389767v-5.0403l8.8039998-1.613,1.6005-13.2373h4.9760999v13.2373h13.7617997v6.6533h-13.7617997v24.0133c0,3.672.4057,6.1552,1.2418,7.5593.836,1.407,2.0713999,2.343,3.8310999,2.7516,4.8232999,1.2386,7.4937998,1.8874,7.8930998,1.8874v4.7547h-7.8180998c-7.8058998,0-11.7244997-5.6406-11.7244997-16.953v-24.0133h-8.8039998ZM519.4719844,63.6510767c0-5.2272.3775865-9.4515,1.0951865-12.6772.6769-3.1775,1.9841999-5.5908,3.8591999-7.238,1.8376136-1.6504,3.9092999-2.7423,6.1836998-3.2183,2.3240999-.5319,5.2629138-.814,8.8914998-.814,3.6249999,0,6.3736998.1651,8.2048998.4865,1.8376.2776,3.6690999.9655,5.4411999,2.0513,1.7408,1.0888,3.0167999,2.7798,3.8090999,5.1196.752,2.3212,1.1574,5.3818,1.1574,9.2161,0,7.319-4.0616999,10.9396-12.1516997,10.9396h-19.9041995c0,5.5626.6082,9.2908,1.8375,11.1533,1.2853,1.8846,3.6346999,2.8424,7.1475998,2.8424,10.7507997,0,18.1726995-.3122,22.1567994-.9204v5.0415c-5.8682999,1.6942-13.2371856,2.4897-22.1567994,2.4897-5.9840998,0-10.1019997-1.7284-12.2922997-5.185-2.1838999-3.4727-3.2790864-9.9151-3.2790864-19.2871h0ZM526.0582708,60.9994767h19.9041995c3.7065142,0,5.5782999-1.4913,5.5782999-4.4224,0-4.5876-.683-7.4408-1.9966999-8.5437-1.3475-1.1184-4.4642999-1.6877-9.3719998-1.6877-6.1021998,0-9.7182998.6549-10.9162997,1.8935-1.6782,1.8175-2.5892999,3.7828-2.8326999,5.9185-.2339,2.1727-.3648,4.4301-.3648,6.8418h0ZM441.4949844,87.6739767v-47.6088h4.633l1.9592883,5.7594c.3527117-.2357,1.0734-.6881,2.1464999-1.2855,1.1108-.6489,1.8814-1.084,2.3087999-1.3664.4866-.2495,1.1603-.646,2.1586999-1.1309.9549-.4431,1.7877118-.8003,2.4240999-.9594l2.2493999-.8095c1.3916-.476,3.413212-.7271,6.0056998-.7271,2.6330999,0,5.1070999.6443,7.4596998,1.8986,2.3835999,1.2402,4.0680999,2.934,5.0728999,5.1054,5.5686999-4.6687,11.9017997-7.004,19.0090995-7.004,4.1399999,0,7.6091998,1.4478,10.4044997,4.3023,2.7483999,2.864,4.1431999,6.5734,4.1431999,11.0271v32.7988h-6.5330998v-32.7988c0-2.6145-.7581-4.739-2.2835999-6.3054-1.4977-1.5692-3.4068999-2.3803-5.7309999-2.3803-3.5473999,0-6.6171871.3603-9.2160998,1.0887-2.5457999.7239-5.2913999,2.0124-8.2052998,3.9391v36.4567h-6.5359998v-32.7988c0-2.6145-.7642-4.739-2.2710999-6.3054-1.5194-1.5692-3.4413999-2.3803-5.7031999-2.3803-2.2742999,0-4.3895999.2402-6.2957998.7255-1.9216.4789-3.4441999.9296-4.4738999,1.3712-1.0731.4335-3.1163999,1.4427-6.1334998,2.9311v36.4567h-6.5922883ZM427.3123733,44.9853767c-1.2791-1.5303-3.0294999-2.7034-5.2194999-3.588l-2.105889,6.2038c.655189.3604,1.294789.8425,1.906289,1.4101,1.3072,1.2402,2.1524999,3.0545,2.6297999,5.5052.4399111,2.4567.6396,5.7217.6396,9.7838,0,4.0588-.2338,7.244-.8079,9.5403-.5115,2.2807-1.4257889,4.0215-2.7889999,5.0978-1.3073,1.1293-2.7394999,1.8187-4.2616999,2.1028-1.5134.3274-3.5879999.4712-6.3021998.4712-.961,0-1.7472-.0313-2.5551999-.0719l-2.1838999,6.4424c1.4632106.1623,3.0637999.2403,4.7763999.2403,7.8902998,0,13.3155997-1.6817,16.2731996-5.101,2.9387999-3.4036,4.4268999-9.6995,4.4268999-18.928,0-9.1659-1.4881-15.5694-4.4268999-19.1088h0ZM400.527074,78.9853767c.5102.3993.9935.6737,1.4804.9795l-2.1573999,6.3926c-2.1557999-.8831-3.8716999-2.0248-5.1475999-3.5069-2.9950999-3.5346-4.5083999-9.8681-4.5083999-19.0011,0-9.1695,1.5133-15.4838,4.5083999-18.9517,3.0291999-3.5004,8.4905998-5.2725,16.3366996-5.2725,1.6881,0,3.2042999.1201,4.6236999.2888l-2.1838891,6.3955c-.6427108,0-1.2852108-.0467-1.9999108-.0467-2.5924999,0-4.5360892.0828-5.8650892.2869-1.2635106.1623-2.5893105.6083-3.8998105,1.2466-1.2839.6473-2.2352999,1.6504-2.8748999,2.9839-.6335,1.2855-1.1076,3.0496-1.513,5.3086-.3932896,2.2507-.5524,5.1866-.5524,8.8072,0,3.6627.2776,6.6482.8329,8.9787.568,2.3337,1.5258,4.0279,2.9202999,5.1106h0ZM343.6682754,87.6739767V17.4214767h6.5328998v28.244c.2028092-.0766.8296-.4415,1.9497-1.1264,1.1638-.691,1.8408-1.084,2.1276999-1.2089.2341-.1217.8769-.4837,1.897-1.0482,1.0108-.5584,1.7315-.9252,2.1244999-1.0405.3993-.1233,1.1168-.3306,2.0343999-.6894.9513-.362,1.7094-.6022,2.3115999-.7239,1.9092-.362,3.5470999-.5645,4.9824999-.5645,4.4955999,0,8.0550998,1.5302,10.6447997,4.5048,2.6330999,2.9874,3.9028999,6.5642,3.9028999,10.748v33.1575h-6.5765998v-33.1575c0-2.8532-.7206902-5.0231-2.1588999-6.4316-1.46-1.4459-3.3413999-2.1839-5.6936999-2.1839-2.3119999,0-4.5175999.2402-6.5017998.738-2.0308999.4741-3.6189999.9622-4.8667999,1.4833-1.1888.4773-3.2665999,1.4881-6.1772998,2.8982v36.6535h-6.5328998ZM299.5302765,76.3614767c-.7907-3.3384-1.1559-7.5251-1.1559-12.512,0-5.0247.3652-9.2084,1.0827-12.5044.7533-3.3117,1.8734-5.8045,3.3412999-7.4549,1.4789-1.6488,3.0713999-2.772,4.7872999-3.3381,1.7207-.6022,4.5113081-.9268,8.3659998-.9268,3.8374999,0,9.9006997.8099,18.1899995,2.3385v4.8716c-8.2112998-.3683-14.0314996-.5725-17.5098996-.5725-3.4255999,0-5.5781999.1668-6.4548998.4492-.8705.3214-1.8283,1.0092-2.7454999,2.0622-1.6785,2.1232-2.5192999,6.8747-2.5192999,14.3184,0,7.4532.6801,12.3545,2.0387999,14.7694,1.3182,2.4146,3.6297999,3.6503,6.9385998,3.6503,5.5782999,0,11.4028997-.2374,17.4989996-.7208l3.3895999-.2776v5.0227c-5.7060912,1.6223-12.6414997,2.4772-20.8885995,2.5865-2.4333999,0-4.4677999-.284-6.1462998-.8923-1.7063-.599-3.3035999-1.7191-4.8185999-3.335-1.5178-1.6475-2.6313999-4.1371-3.3942999-7.5344h0ZM262.1390775,46.6389767v-5.0403l8.7684998-1.613,1.599-13.2373h4.9804999v13.2373h13.7570997v6.6533h-13.7570997v24.0133c0,3.672.3993,6.1552,1.2386,7.5593.8332,1.407,2.1074999,2.343,3.8249999,2.7516,4.8623999,1.2386,7.4921998,1.8874,7.8979998,1.8874v4.7547h-7.8151998c-7.8231998,0-11.7258997-5.6406-11.7258997-16.953v-24.0133h-8.7684998ZM218.1620786,63.6510767c0-5.2272.3651-9.4515,1.0795-12.6772.7143-3.1775,1.9905999-5.5908,3.8654999-7.238,1.875-1.6504,3.9480999-2.7423,6.2223998-3.2183,2.2758999-.5319,5.2242999-.814,8.8479998-.814,3.6687999,0,6.4127998.1651,8.2531998.4865,1.8348.2776,3.6301999.9655,5.3801999,2.0513,1.7971067,1.0888,3.0729999,2.7798,3.8311067,5.1196.7584932,2.3212,1.1577932,5.3818,1.1577932,9.2161,0,7.319-4.0716999,10.9396-12.1628997,10.9396h-19.8949995c0,5.5626.6396,9.2908,1.875,11.1533,1.2369,1.8846,3.5875999,2.8424,7.1007998,2.8424,10.7568997,0,18.1759995-.3122,22.2023063-.9204v5.0415c-5.8591067,1.6942-13.2766065,2.4897-22.2023063,2.4897-5.9855998,0-10.0491997-1.7284-12.2423997-5.185-2.1931999-3.4727-3.3131999-9.9151-3.3131999-19.2871h0ZM224.7418784,60.9994767h19.8949995c3.7486999,0,5.5782999-1.4913,5.5782999-4.4224,0-4.5876-.6348-7.4408-1.9873999-8.5437-1.3211-1.1184-4.4284999-1.6877-9.3764998-1.6877-6.0960998,0-9.7214998.6549-10.9226997,1.8935-1.6315,1.8175-2.5876999,3.7828-2.8279999,5.9185-.2402,2.1727-.3587,4.4301-.3587,6.8418h0ZM177.3375796,87.6739767V17.5776767h6.5407998v39.4329h3.5518999l18.0589995-16.9454h9.1272998l-20.9326995,20.2931,20.9326995,27.3157h-8.1726998l-19.0135995-24.0229h-3.5518999v24.0229h-6.5407998Z"/></svg>